<svg width="90" height="18" viewBox="0 0 90 18" fill="none" xmlns="http://www.w3.org/2000/svg">
<path d="M5.57616 8.22869H2.76672C1.59175 8.22869 0.638672 7.37641 0.638672 6.32397V2.41913C0.638672 1.36746 1.59088 0.514404 2.76672 0.514404H6.19029C5.80854 0.548026 5.43901 0.620744 5.08434 0.734902C4.58028 0.897538 4.17057 1.14227 3.8552 1.46833C3.53984 1.79438 3.38172 2.18534 3.38172 2.64197C3.38172 3.13066 3.51538 3.52787 3.7827 3.83125C4.04914 4.13541 4.37149 4.36373 4.74801 4.51542C5.12365 4.66789 5.60936 4.81958 6.20427 4.97205C6.68998 5.10263 7.06912 5.21679 7.34255 5.31453C7.6151 5.41226 7.84311 5.54832 8.02569 5.7219C8.20739 5.89548 8.29825 6.11833 8.29825 6.38965C8.29825 6.79155 8.13751 7.10431 7.81603 7.32637C7.49455 7.54921 7.04815 7.66024 6.4777 7.66024C5.8461 7.66024 5.36388 7.56485 5.03017 7.37485C4.69646 7.18485 4.52961 6.92682 4.52961 6.60076C4.52961 6.36228 4.5995 6.17697 4.73927 6.04639C4.87904 5.91581 4.94893 5.84544 4.94893 5.83449C4.94893 5.78054 4.87293 5.70392 4.72092 5.60618C4.56892 5.50844 4.39595 5.45918 4.20202 5.45918C3.86219 5.45918 3.58614 5.55692 3.37386 5.75239C3.16158 5.94787 3.055 6.20355 3.055 6.51866C3.055 7.07303 3.35814 7.5023 3.96528 7.80568C4.40556 8.02852 4.94369 8.1677 5.57616 8.22869Z" fill="#FA865F"/>
<path d="M7.36337 0H2.84852C1.27814 0 0 1.15864 0 2.5822V6.67494C0 8.0993 1.27814 9.25714 2.84852 9.25714H7.36337C8.93463 9.25714 10.2128 8.0985 10.2128 6.67494V2.5822C10.2128 1.15864 8.93463 0 7.36337 0ZM9.96894 6.67494C9.96894 7.97881 8.80259 9.03611 7.36425 9.03611H2.84852C1.41018 9.03611 0.243832 7.97881 0.243832 6.67494V2.5822C0.243832 1.27833 1.41018 0.221035 2.84852 0.221035H7.36337C7.97691 0.221035 8.54027 0.41494 8.98569 0.738114C9.49271 1.18178 9.82721 1.92548 9.4487 2.66998C9.39853 2.79526 9.3237 2.91016 9.22424 3.0139C9.02266 3.22456 8.75594 3.32989 8.42584 3.32989C8.22954 3.32989 8.05613 3.27962 7.90297 3.17987C7.7498 3.08013 7.67322 3.00273 7.67322 2.94687C7.67322 2.9357 7.72251 2.89181 7.82022 2.81361C7.91793 2.73621 8.00684 2.64444 8.08694 2.53911C8.16616 2.43378 8.20666 2.3093 8.20666 2.16487C8.18201 1.86563 8.01652 1.63263 7.71107 1.46665C7.40474 1.30068 7.04383 1.21689 6.62835 1.21689C6.16357 1.21689 5.75689 1.31424 5.40831 1.50815C5.05973 1.70205 4.88544 1.97096 4.88544 2.31488C4.88544 2.62529 4.9585 2.87186 5.1055 3.05459C5.25251 3.23733 5.47257 3.38495 5.7657 3.49507C6.05882 3.60598 6.5236 3.756 7.16003 3.94432C7.8079 4.13264 8.31581 4.30739 8.68288 4.46858C8.99449 4.60503 9.24712 4.78377 9.4487 5.00002C9.45134 5.00321 9.45398 5.00561 9.45662 5.0088C9.79816 5.38145 9.96894 5.85783 9.96894 6.34219V6.67494Z" fill="#FA865F"/>
<path d="M16.1769 17.9628C15.0563 17.9628 14.0431 17.8074 13.1373 17.4966C12.247 17.1857 11.5408 16.7382 11.0188 16.1538C10.4969 15.5695 10.2282 14.8795 10.2129 14.0838H13.667C13.713 14.6184 13.9433 15.0411 14.3578 15.3519C14.7876 15.6627 15.371 15.8181 16.1079 15.8181C16.8601 15.8181 17.4511 15.6752 17.8809 15.3892C18.3108 15.0908 18.5257 14.7054 18.5257 14.233C18.5257 13.8476 18.3799 13.5305 18.0882 13.2819C17.7965 13.0332 17.4281 12.8405 16.9829 12.7037C16.553 12.5545 15.9543 12.3929 15.1868 12.2189C14.1429 11.9702 13.2909 11.7278 12.6307 11.4915C11.986 11.2429 11.4257 10.8761 10.9498 10.3912C10.4892 9.89393 10.2589 9.235 10.2589 8.41444C10.2589 7.64361 10.4969 6.97224 10.9728 6.40033C11.4487 5.82842 12.1165 5.39328 12.9762 5.09489C13.8358 4.78407 14.8183 4.62866 15.9236 4.62866C17.5816 4.62866 18.9248 4.95813 19.9534 5.61707C20.9973 6.26357 21.573 7.17116 21.6804 8.33984H18.1342C18.1035 7.89226 17.8656 7.52549 17.4204 7.23954C16.9906 6.94115 16.4149 6.79196 15.6934 6.79196C15.064 6.79196 14.5574 6.92251 14.1736 7.18359C13.8051 7.44468 13.6209 7.82388 13.6209 8.32119C13.6209 8.66931 13.7591 8.96148 14.0354 9.1977C14.3271 9.42149 14.6802 9.60798 15.0947 9.75717C15.5245 9.89393 16.1232 10.0556 16.8908 10.2421C17.9347 10.4907 18.7867 10.7394 19.4468 10.988C20.1069 11.2367 20.6749 11.6097 21.1508 12.107C21.6267 12.6043 21.8646 13.257 21.8646 14.0651C21.8646 14.7614 21.6421 15.4079 21.1969 16.0046C20.7517 16.6014 20.0992 17.0801 19.2395 17.4406C18.3799 17.7887 17.359 17.9628 16.1769 17.9628Z" fill="#18063C"/>
<path d="M23.6003 12.6291C23.6003 11.5848 23.8536 10.6585 24.3602 9.85042C24.8822 9.04229 25.5807 8.42065 26.4557 7.98551C27.3461 7.55036 28.3362 7.33279 29.4262 7.33279C30.378 7.33279 31.207 7.4882 31.9131 7.79901C32.6347 8.10983 33.2103 8.50147 33.6402 8.97391V7.50063H36.887V17.8322H33.6402V16.3217C33.2257 16.8065 32.65 17.2106 31.9131 17.5339C31.1916 17.8447 30.355 18.0001 29.4032 18.0001C28.3286 18.0001 27.3461 17.7763 26.4557 17.3287C25.5807 16.8811 24.8822 16.2533 24.3602 15.4452C23.8536 14.6246 23.6003 13.6859 23.6003 12.6291ZM33.6402 12.6664C33.6402 12.0324 33.4867 11.4915 33.1796 11.044C32.8726 10.584 32.4581 10.2358 31.9362 9.99961C31.4142 9.75096 30.8539 9.62663 30.2552 9.62663C29.6565 9.62663 29.1038 9.74474 28.5972 9.98096C28.0906 10.2172 27.6761 10.5653 27.3538 11.0253C27.0467 11.4729 26.8932 12.0075 26.8932 12.6291C26.8932 13.2508 27.0467 13.7978 27.3538 14.2703C27.6761 14.7303 28.0906 15.0846 28.5972 15.3333C29.1192 15.5819 29.6718 15.7062 30.2552 15.7062C30.8539 15.7062 31.4142 15.5881 31.9362 15.3519C32.4581 15.1033 32.8726 14.7551 33.1796 14.3076C33.4867 13.8476 33.6402 13.3005 33.6402 12.6664Z" fill="#18063C"/>
<path d="M38.9764 12.6291C38.9764 11.5848 39.2297 10.6585 39.7363 9.85042C40.2582 9.04229 40.9567 8.42065 41.8317 7.98551C42.7221 7.55036 43.7123 7.33279 44.8022 7.33279C45.754 7.33279 46.583 7.4882 47.2892 7.79901C48.0107 8.10983 48.5864 8.50147 49.0162 8.97391V7.50063H52.2631V17.8322H49.0162V16.3217C48.6017 16.8065 48.0261 17.2106 47.2892 17.5339C46.5677 17.8447 45.731 18.0001 44.7792 18.0001C43.7046 18.0001 42.7221 17.7763 41.8317 17.3287C40.9567 16.8811 40.2582 16.2533 39.7363 15.4452C39.2297 14.6246 38.9764 13.6859 38.9764 12.6291ZM49.0162 12.6664C49.0162 12.0324 48.8627 11.4915 48.5557 11.044C48.2486 10.584 47.8342 10.2358 47.3122 9.99961C46.7903 9.75096 46.2299 9.62663 45.6312 9.62663C45.0325 9.62663 44.4799 9.74474 43.9733 9.98096C43.4667 10.2172 43.0522 10.5653 42.7298 11.0253C42.4228 11.4729 42.2693 12.0075 42.2693 12.6291C42.2693 13.2508 42.4228 13.7978 42.7298 14.2703C43.0522 14.7303 43.4667 15.0846 43.9733 15.3333C44.4952 15.5819 45.0479 15.7062 45.6312 15.7062C46.2299 15.7062 46.7903 15.5881 47.3122 15.3519C47.8342 15.1033 48.2486 14.7551 48.5557 14.3076C48.8627 13.8476 49.0162 13.3005 49.0162 12.6664Z" fill="#18063C"/>
<path d="M60.7309 17.9628C59.6103 17.9628 58.5971 17.8074 57.6914 17.4966C56.801 17.1857 56.0948 16.7382 55.5729 16.1538C55.0509 15.5695 54.7823 14.8795 54.7669 14.0838H58.221C58.267 14.6184 58.4973 15.0411 58.9118 15.3519C59.3416 15.6627 59.925 15.8181 60.6619 15.8181C61.4141 15.8181 62.0051 15.6752 62.435 15.3892C62.8648 15.0908 63.0797 14.7054 63.0797 14.233C63.0797 13.8476 62.9339 13.5305 62.6422 13.2819C62.3505 13.0332 61.9821 12.8405 61.5369 12.7037C61.1071 12.5545 60.5084 12.3929 59.7408 12.2189C58.6969 11.9702 57.8449 11.7278 57.1848 11.4915C56.54 11.2429 55.9797 10.8761 55.5038 10.3912C55.0432 9.89393 54.813 9.235 54.813 8.41444C54.813 7.64361 55.0509 6.97224 55.5268 6.40033C56.0027 5.82842 56.6705 5.39328 57.5302 5.09489C58.3898 4.78407 59.3723 4.62866 60.4776 4.62866C62.1356 4.62866 63.4789 4.95813 64.5074 5.61707C65.5513 6.26357 66.127 7.17116 66.2344 8.33984H62.6883C62.6576 7.89226 62.4196 7.52549 61.9744 7.23954C61.5446 6.94115 60.9689 6.79196 60.2474 6.79196C59.618 6.79196 59.1114 6.92251 58.7276 7.18359C58.3591 7.44468 58.1749 7.82388 58.1749 8.32119C58.1749 8.66931 58.3131 8.96148 58.5894 9.1977C58.8811 9.42149 59.2342 9.60798 59.6487 9.75717C60.0785 9.89393 60.6772 10.0556 61.4448 10.2421C62.4887 10.4907 63.3407 10.7394 64.0008 10.988C64.6609 11.2367 65.2289 11.6097 65.7048 12.107C66.1807 12.6043 66.4187 13.257 66.4187 14.0651C66.4187 14.7614 66.1961 15.4079 65.7509 16.0046C65.3057 16.6014 64.6532 17.0801 63.7936 17.4406C62.9339 17.7887 61.913 17.9628 60.7309 17.9628Z" fill="#18063C"/>
<path d="M72.7367 9.64528V14.6432C72.7367 14.9914 72.8365 15.2462 73.0361 15.4079C73.251 15.5571 73.6041 15.6317 74.0953 15.6317H75.5921V17.8322H73.5657C70.8485 17.8322 69.4899 16.763 69.4899 14.6246V9.64528H67.9701V7.50063H69.4899V4.9457H72.7367V7.50063H75.5921V9.64528H72.7367Z" fill="#18063C"/>
<path d="M83.3453 18.0001C82.1171 18.0001 81.0118 17.7825 80.0294 17.3474C79.0469 16.8998 78.2716 16.2719 77.7036 15.4638C77.1509 14.6557 76.8746 13.7232 76.8746 12.6664C76.8746 11.6097 77.1586 10.6772 77.7266 9.86907C78.31 9.06094 79.1006 8.4393 80.0984 8.00416C81.0963 7.55658 82.2093 7.33279 83.4374 7.33279C84.6655 7.33279 85.7785 7.55658 86.7763 8.00416C87.7742 8.4393 88.5571 9.06094 89.1251 9.86907C89.7084 10.6772 90.0001 11.6097 90.0001 12.6664C90.0001 13.7232 89.7008 14.6557 89.1021 15.4638C88.5187 16.2719 87.7204 16.8998 86.7072 17.3474C85.7094 17.7825 84.5887 18.0001 83.3453 18.0001ZM83.3453 15.7249C83.9286 15.7249 84.4736 15.613 84.9802 15.3892C85.5021 15.153 85.9166 14.8049 86.2237 14.3449C86.5307 13.8848 86.6842 13.3254 86.6842 12.6664C86.6842 11.6843 86.3618 10.9321 85.7171 10.4099C85.0877 9.87528 84.3124 9.60798 83.3913 9.60798C82.4702 9.60798 81.695 9.87528 81.0656 10.4099C80.4515 10.9321 80.1445 11.6843 80.1445 12.6664C80.1445 13.6486 80.4438 14.407 81.0425 14.9416C81.6566 15.4638 82.4242 15.7249 83.3453 15.7249Z" fill="#18063C"/>
</svg>
