<svg width="65" height="77" viewBox="0 0 65 77" fill="none" xmlns="http://www.w3.org/2000/svg">
<path opacity="0.5" d="M61.1443 1.04598C60.87 0.519885 60.2211 0.315776 59.695 0.590095C59.1689 0.864413 58.9648 1.51328 59.2391 2.03938L61.1443 1.04598ZM41.5277 39.1552L41.3141 38.1024L41.5277 39.1552ZM1.10363 66.8197C0.640654 67.1908 0.566127 67.8669 0.937178 68.3299L6.9838 75.8746C7.35485 76.3376 8.03096 76.4121 8.49395 76.041C8.95693 75.67 9.03145 74.9939 8.6604 74.5309L3.28563 67.8245L9.99205 62.4497C10.455 62.0786 10.5296 61.4025 10.1585 60.9395C9.78746 60.4766 9.11134 60.402 8.64836 60.7731L1.10363 66.8197ZM59.2391 2.03938C61.8273 7.00303 63.9782 14.7236 62.1961 21.8041C61.3114 25.3191 59.4558 28.6914 56.1716 31.5295C52.8796 34.3745 48.102 36.7254 41.3141 38.1024L41.7413 40.2081C48.7993 38.7763 53.9422 36.296 57.5765 33.1552C61.2187 30.0076 63.2953 26.2398 64.2797 22.3285C66.2359 14.5563 63.873 6.27926 61.1443 1.04598L59.2391 2.03938ZM41.3141 38.1024C32.8457 39.8202 26.9474 38.5942 23.1581 36.1367C19.3747 33.6831 17.5606 29.9202 17.3827 26.2536C17.2036 22.563 18.6802 19.0482 21.3887 17.0496C24.0505 15.0853 28.1163 14.4336 33.4646 16.8808L34.3586 14.927C28.4676 12.2315 23.5389 12.7925 20.1129 15.3207C16.7334 17.8146 15.0287 22.072 15.2366 26.3577C15.4458 30.6673 17.587 35.0846 21.989 37.9394C26.3852 40.7904 32.9024 42.0011 41.7413 40.2081L41.3141 38.1024ZM33.4646 16.8808C38.721 19.286 41.6846 23.7415 42.6201 29.0993C43.5609 34.4878 42.4417 40.7915 39.4598 46.7143C33.5048 58.5425 20.2493 68.6135 1.89318 66.5902L1.65778 68.7258C21.0252 70.8606 35.0772 60.1973 41.3789 47.6805C44.5255 41.4306 45.772 34.6591 44.7367 28.7297C43.696 22.7696 40.3414 17.6646 34.3586 14.927L33.4646 16.8808Z" fill="#D26D60"/>
</svg>
